<?xml version="1.0" encoding="UTF-8"?>
<svg xmlns="http://www.w3.org/2000/svg" xmlns:xlink="http://www.w3.org/1999/xlink" id="Atzmi" viewBox="0 0 49 34">
  <defs>
    <style>.cls-1{fill:#7a9ae0;}.cls-2,.cls-3{fill:none;}.cls-3{clip-path:url(#clippath);}</style>
    <clipPath id="clippath">
      <rect class="cls-2" x="9" y="0" width="31" height="34"></rect>
    </clipPath>
  </defs>
  <g class="cls-3">
    <path class="cls-1" d="m32.52,7.68c-.53-.89-1.19-1.56-1.96-2.11-.38-.27-.84-.32-1.28-.36-.76-.07-1.54-.11-2.29.09-1.04.28-2.04.64-2.92,1.34-1.05.82-1.87,1.81-2.5,2.98-.22.42-.33.87-.38,1.34-.04.41-.32.59-.7.45-.31-.12-.59-.31-.86-.5-.51-.34-1.05-.64-1.58-.94-.36-.21-.42-.32-.28-.73.16-.47.35-.93.57-1.37.28-.55.56-1.09.84-1.64.36-.73.82-1.39,1.37-1.99.39-.42.73-.87,1.09-1.32.38-.48.85-.83,1.39-1.11.35-.18.65-.47.98-.69.88-.59,1.86-.89,2.89-1.01,1.29-.15,2.59-.15,3.85.14,1.14.26,2.24.68,3.35,1.09,1.28.47,2.24,1.37,3.24,2.23.36.31.61.72.81,1.15.34.72.71,1.43,1,2.18.28.71.32,1.47.47,2.2.18.88.17,1.78.18,2.67.04,2.07.04,4.14.12,6.2.06,1.59,0,3.18.06,4.78.06,1.78-.16,3.55-.18,5.33,0,.41,0,.82,0,1.22-.02,1.19-.13,2.38-.31,3.56,0,.05-.03.1-.03.15-.06.58-.15.68-.71.74-.66.08-1.33.15-1.99.24-.57.07-1.14-.04-1.71-.14-.29-.05-.43-.24-.41-.55.03-.73.14-1.44.19-2.17.09-1.12.1-2.25.1-3.37,0-.17-.04-.22-.23-.18-1.07.27-2.15.5-3.26.6-.94.09-1.85-.07-2.74-.39-1.32-.47-2.49-1.2-3.58-2.07-.42-.33-.84-.64-1.23-1-.17-.16-.36-.3-.58-.39-.19-.08-.29-.24-.27-.45.02-.21.15-.34.35-.39,1.51-.42,3.03-.76,4.6-.74,1.68.02,3.3.31,4.82,1.05.77.38,1.5.84,1.99,1.6.04.05.08.15.15.12.1-.03.08-.15.08-.23.12-1.6.12-3.2.05-4.8-.01-.3-.05-.59-.04-.89,0-.24-.1-.27-.29-.21-.63.18-1.27.37-1.91.54-1.17.31-2.37.46-3.58.38-.77-.05-1.51-.26-2.21-.61-.92-.46-1.78-1.02-2.59-1.66-.36-.28-.33-.64.07-.85,1.53-.82,3.11-1.5,4.81-1.82,1.28-.24,2.58-.28,3.88-.02.46.09.91.2,1.35.34.15.05.21.02.21-.15-.03-2.04-.27-4.02-1.19-5.87-.14-.29-.16-.29-.36-.03-.53.69-1.26,1.15-1.92,1.69-1.33,1.06-2.87,1.58-4.51,1.88-.61.11-1.22.22-1.83.32-.52.09-.76-.14-.67-.68.08-.49.23-.96.44-1.41.28-.59.57-1.18.9-1.74.42-.69,1-1.16,1.71-1.51,1.27-.64,2.59-.98,4.02-.81.36.04.67.24,1.1.3Z"></path>
    <path class="cls-1" d="m13.72,18.89c-.15.01-.23.11-.32.18-.86.68-1.86,1.11-2.79,1.66-.34.2-.7.38-1.05.57-.15.08-.3.09-.43-.03-.14-.12-.14-.26-.08-.43.44-1.24.91-2.47,1.31-3.72.36-1.1.99-2.04,1.52-3.04.15-.28.32-.54.48-.82.51-.92,1.28-1.49,2.24-1.84,1.74-.63,3.38-.4,4.88.65.81.57,1.62,1.22,1.86,2.32.16.7.19,1.39.18,2.1-.05,2.14-.71,4.11-1.64,6-.4.81-.72,1.67-1.24,2.42-.04.06-.08.11-.12.17-.1.13-.22.24-.39.19-.16-.04-.23-.17-.27-.32-.12-.43-.21-.87-.28-1.31-.12-.78-.24-1.57-.36-2.35-.02-.12-.04-.34-.24-.17-.68.54-1.5.83-2.22,1.29-.25.16-.51.32-.78.46-.39.2-.64.03-.61-.41.05-.76.17-1.52.27-2.28.06-.43.11-.86.1-1.3h0Z"></path>
  </g>
</svg>
