<?xml version="1.0" encoding="UTF-8"?>
<svg xmlns="http://www.w3.org/2000/svg" id="Alimut" viewBox="0 0 49 34">
  <defs>
    <style>.cls-1{fill:#fb952f;}</style>
  </defs>
  <path class="cls-1" d="m16.25,26.03c-.39-1.63-1.75-3.6-2.49-5.11-1.3-2.63-2.54-5.03-1.14-6.04,2.22-1.59,4.48,4.36,5.5,4.95,1.02.59,1.23-1.88.51-5.84-.42-2.28-.91-4.44-1.13-7.08-.32-3.86,1.89-3.58,2.59-2.52.87,1.32,1.3,4.78,1.54,6.11.43,2.5,1.43,5.47,1.68,2.37.14-1.81.02-4.98-.05-7.38-.13-4.29,3.47-4.58,3.49-1.1s-.51,9.94.21,10.34c.72.4,2.3-5.2,3.37-7.9,1.07-2.7,3.35-1.8,3.08.59-.43,3.73-2.32,6.54-2.61,8.06-.29,1.52,1.13.59,3.31-2.6,2.18-3.19,3.91-.57,2.19,1.78-1,1.37-2.17,3.04-2.89,4.96-1.02,2.73.25,9.62-5.38,11.69-5.63,2.06-10.68-.64-11.77-5.27h0Z"></path>
</svg>
