<?xml version="1.0" encoding="UTF-8"?>
<svg xmlns="http://www.w3.org/2000/svg" xmlns:xlink="http://www.w3.org/1999/xlink" id="Afraha" viewBox="0 0 49 34">
  <defs>
    <style>.cls-1{fill:#fbd34f;}.cls-2,.cls-3{fill:none;}.cls-3{clip-path:url(#clippath);}</style>
    <clipPath id="clippath">
      <rect class="cls-2" x="4" y="4.5" width="41" height="25"></rect>
    </clipPath>
  </defs>
  <g class="cls-3">
    <path class="cls-1" d="m16.19,14.19c3.65-.1,7.29-.71,10.93-.91,3.65-.21,7.28.83,10.93.67.69-.03,6.94-.31,6.94-1.09,0-.94-7.69-1.12-8.47-1.12-2.58,0-5.14.72-7.71.75-5.1.06-10.19-1.12-15.31-.94-.86.03-9.51.43-9.51,1.31,0,1.16,11.12,1.36,12.19,1.33h0Z"></path>
    <path class="cls-1" d="m30.2,22.59c1.36-.1,14.8-.2,14.8-1.29,0-1.17-12.57-1.11-13.88-1.22-4.06-.35-8.07.38-12.13.51-4.37.13-8.76.11-13.12-.12-.61-.03-2.18-.03-1.81,1.13.29.93,2.01.53,2.63.48,1.25-.1,2.51-.09,3.76-.09,2,0,4.01-.02,6.01,0,4.58.04,9.15.83,13.73.62h0Z"></path>
    <path class="cls-1" d="m30.2,6.65c1.36-.1,14.8-.82,14.8-1.29,0-1.14-13.1-.64-14.4-.76-4.06-.35-8.94.28-12.99.4-4.37.13-7.36-.25-11.72-.49-.6-.03-2.18-.03-1.81,1.13.29.93,2.01.53,2.63.48,1.25-.1,2.51-.09,3.76-.09,2,0,4.01-.02,6.01,0,4.58.04,9.15.83,13.73.62h0Z"></path>
    <path class="cls-1" d="m17,28.91c3.88-.15,12.15-.17,16.03-.19,1.96-.01,3.93,0,5.89,0,1.23,0,2.44.01,3.67.12.62.05,2.03.36,2.34-.5.45-1.25-1.47-1.15-2.07-1.1-4.16.33-10.13.59-14.29.47-3.84-.11-7.89-.27-11.73-.6-2.27-.2-12.84-.52-12.84.95,0,2.64,11.45.87,13,.86h0Z"></path>
  </g>
</svg>
