<?xml version="1.0" encoding="UTF-8"?>
<svg xmlns="http://www.w3.org/2000/svg" xmlns:xlink="http://www.w3.org/1999/xlink" id="Eating" viewBox="0 0 49 34">
  <defs>
    <style>.cls-1,.cls-2{fill:none;}.cls-3{fill:#af80ea;}.cls-2{clip-path:url(#clippath);}</style>
    <clipPath id="clippath">
      <rect class="cls-1" x="6.5" y="3.5" width="36" height="27"></rect>
    </clipPath>
  </defs>
  <g class="cls-2">
    <path class="cls-3" d="m32.32,20.12c-.38,1.24-1.98,6.06-6.64,8.72-2.51,1.43-4.97,1.62-6.04,1.65-2.62.08-4.53-.67-4.92-.82-.86-.34-2.7-1.11-4.33-2.99-1.13-1.31-1.59-2.56-2.27-4.24-.92-2.29-2.05-5.08-1.48-8.5.41-2.43,1.49-4.1,1.93-4.77.27-.41,1.49-2.21,3.72-3.64,3.69-2.38,7.5-2.07,8.61-1.94,7.1.87,10.78,7.71,11.17,8.45-4.15,1.49-8.29,2.98-12.43,4.47l12.68,3.61h0Z"></path>
    <path class="cls-3" d="m42.51,15.64c0,2.44-2.11,4.17-3.85,4.1-1.4-.05-2.41-1.26-2.61-1.5-.24-.28-.88-1.06-1-2.13-.21-1.87,1.21-4.51,3.62-4.58,2.11-.06,3.85,1.9,3.85,4.1Z"></path>
  </g>
</svg>
