<?xml version="1.0" encoding="UTF-8"?>
<!-- Generator: Adobe Illustrator 28.2.0, SVG Export Plug-In . SVG Version: 6.00 Build 0)  -->
<svg xmlns="http://www.w3.org/2000/svg" xmlns:xlink="http://www.w3.org/1999/xlink" version="1.1" id="Booly" x="0px" y="0px" viewBox="0 0 49 34" style="enable-background:new 0 0 49 34;" xml:space="preserve">
<style type="text/css">
	.st0{fill:#6FB590;}
</style>
<path class="st0" d="M37.5,6.6c-2.3-3.2-5.5-5.5-11-5.7l0.9,3.6c3.1,0.7,5.3,3,6.7,5c2.2,3,2,7,1.5,9.9c-5-4.4-9.4-3.9-14-1l0,0  c-1.5,1-3.8,0.8-6.3,0.2c0.5-3.8,2-12.1,6.3-13.6c0.3-0.1,0.7-0.2,1-0.3L21,1.4c-3.6,1.2-7.1,4.8-8.5,9.3c-0.8,2.5-1.1,5-1.1,6.4  c-0.7-0.3-1.3-0.6-2-0.9c-0.4,6.3,3.2,12.6,7.7,15.2c3.6,2.1,7.5,1.8,9,1.6c1.3-0.1,7.4-0.6,11-5c1.1-1.3,1.9-3,2.4-4.8  c-0.4-0.4-0.7-0.9-1.1-1.3C39.5,18.3,41,11.3,37.5,6.6z"></path>
</svg>
