<?xml version="1.0" encoding="UTF-8"?>
<!-- Generator: Adobe Illustrator 28.2.0, SVG Export Plug-In . SVG Version: 6.00 Build 0)  -->
<svg xmlns="http://www.w3.org/2000/svg" xmlns:xlink="http://www.w3.org/1999/xlink" version="1.1" id="Layer_1" x="0px" y="0px" viewBox="0 0 180 86" style="enable-background:new 0 0 180 86;" xml:space="preserve">
<style type="text/css">
	.st0{fill:#6BC7E1;}
	.st1{fill:#FEFFFE;}
</style>
<g>
	<path class="st0" d="M179.7,42.8c-3.3-2.5-8.4-6.1-14.9-10.3C135.2,13.2,114.7-0.1,90.2,0.1C73.3,0.2,60.8,6.8,36.6,19.4   C21,27.6,9,36.2,0.7,42.8c7,7.9,19.2,19.8,37.5,29.2c10.4,5.3,28.2,14.2,52.1,13.5c24.6-0.7,43-11.2,49.6-15   c10-5.7,24.7-16.3,27-18C172.3,48.5,176.7,45.1,179.7,42.8z"></path>
	<path class="st1" d="M118,42.8C117.7,30.2,107,15,90.2,15c-15.4,0-27.8,12.4-27.8,27.8c0,16.3,14.4,27.6,27.8,27.8   c13.2,0.2,21.5-10.4,22.1-11.1C113.5,57.8,118.3,51.5,118,42.8z"></path>
	<path class="st0" d="M105.6,41.6c-0.7-7.4-6.8-15.4-15.4-15.4c-8.8,0-14.6,8.2-15.4,15.4c-0.1,0.6-1,10.4,6.5,15.3   c5.9,3.9,13.6,2.7,18.5-1.4C106.3,50.3,105.7,42.2,105.6,41.6z"></path>
</g>
</svg>
